<?xml version="1.0" encoding="UTF-8"?>
<svg id="Laag_2" data-name="Laag 2" xmlns="http://www.w3.org/2000/svg" viewBox="0 0 474.57 272.09">
  <defs>
    <style>
      .cls-1 {
        fill: #fff;
      }

      .cls-2 {
        letter-spacing: -.01em;
      }

      .cls-3 {
        fill: #007bc7;
      }

      .cls-4 {
        font-family: SegoeUI-Semibold, 'Segoe UI';
        font-size: 59.61px;
        font-weight: 600;
      }
    </style>
  </defs>
  <g id="Laag_1-2" data-name="Laag 1">
    <g>
      <rect class="cls-1" y=".34" width="474.57" height="271.76"/>
      <g>
        <g>
          <path class="cls-3" d="M75.77,190.3c0-7.3,3.03-13.75,7.69-17.68-2.29-1.47-4.91-2.3-7.69-2.3-9.12,0-16.54,8.96-16.54,19.97,0,7.88,3.8,14.72,9.31,17.95h0s15.25,0,15.25,0c-.12-.09-.22-.19-.33-.29-4.66-3.92-7.69-10.36-7.69-17.66Z"/>
          <path class="cls-3" d="M112.38,170.32c-2.78,0-5.4.82-7.69,2.3,4.66,3.92,7.69,10.38,7.69,17.68s-3.03,13.74-7.69,17.66c-.11.1-.21.2-.33.29h15.25c5.51-3.24,9.31-10.07,9.31-17.95,0-11.01-7.42-19.97-16.54-19.97Z"/>
          <path class="cls-3" d="M24.25,0v247.84h139.66V0H24.25ZM85.84,155.54h1.83v1.74h4.65v-4.47h-1.89v-1.81h7.28v1.81h-1.74v4.47h4.5v-1.74h1.83v7.2h-1.83v-1.85h-4.5v4.58h1.74v1.81h-7.28v-1.81h1.89v-4.58h-4.65v1.85h-1.83v-7.2ZM124.94,208.55v8.98h-61.72v-8.98c-4.58-4.29-7.5-10.89-7.5-18.26,0-12.94,9-23.45,20.06-23.45,3.96,0,7.64,1.35,10.75,3.67,2.3-1.24,4.86-1.93,7.55-1.93s5.25.68,7.55,1.93c3.11-2.32,6.8-3.67,10.75-3.67,11.06,0,20.06,10.51,20.06,23.45,0,7.37-2.92,13.96-7.5,18.26Z"/>
        </g>
        <text class="cls-4" transform="translate(188.37 217.37)"><tspan x="0" y="0">Rij</tspan><tspan class="cls-2" x="68.26" y="0">k</tspan><tspan x="98.85" y="0">dle</tspan></text>
      </g>
    </g>
  </g>
</svg>