<?xml version="1.0" encoding="UTF-8"?>
<svg id="Laag_2" data-name="Laag 2" xmlns="http://www.w3.org/2000/svg" viewBox="0 0 256 256">
  <defs>
    <style>
      .cls-1,
      path {
        fill: #ffffff;
      }
    </style>
  </defs>
  <g id="Laag_1-2" data-name="Laag 1">
    <g>
      <path class="cls-1" d="M171.58,92.32c-6.63,0-12.86,1.96-18.31,5.47,11.1,9.34,18.31,24.71,18.31,42.09s-7.21,32.72-18.31,42.06c-.25.25-.5.47-.78.69h36.31c13.11-7.71,22.17-23.99,22.17-42.75,0-26.22-17.67-47.56-39.38-47.56Z"/>
      <path class="cls-1" d="M84.42,139.88c0-17.38,7.21-32.75,18.31-42.09-5.45-3.51-11.69-5.47-18.31-5.47-21.72,0-39.38,21.33-39.38,47.56,0,18.76,9.06,35.04,22.17,42.75h0s36.31,0,36.31,0c-.28-.22-.53-.44-.78-.69-11.1-9.34-18.31-24.68-18.31-42.06Z"/>
      <path class="cls-1" d="M0,0v256h256V0H0ZM108.39,57.12h4.36v4.14h11.07v-10.64h-4.49v-4.31h17.34v4.31h-4.14v10.64h10.72v-4.14h4.36v17.15h-4.36v-4.39h-10.72v10.9h4.14v4.31h-17.34v-4.31h4.49v-10.9h-11.07v4.39h-4.36v-17.15ZM201.48,183.35v21.39H54.51v-21.39c-10.9-10.23-17.86-25.92-17.86-43.47,0-30.81,21.44-55.85,47.77-55.85,9.42,0,18.2,3.21,25.6,8.73,5.48-2.96,11.57-4.59,17.97-4.59s12.49,1.63,17.97,4.59c7.41-5.53,16.18-8.73,25.6-8.73,26.33,0,47.77,25.04,47.77,55.85,0,17.55-6.96,33.24-17.86,43.47Z"/>
    </g>
  </g>
</svg>
