<?xml version="1.0" encoding="UTF-8"?>
<svg id="Laag_2" data-name="Laag 2" xmlns="http://www.w3.org/2000/svg" viewBox="0 0 352.29 247.84">
  <defs>
    <style>
      .cls-1,
      path {
        fill: #ffffff;
      }
    </style>
  </defs>
  <g id="Laag_1-2" data-name="Laag 1">
    <g>
      <g>
        <path class="cls-1" d="M51.53,190.3c0-7.3,3.03-13.75,7.69-17.68-2.29-1.47-4.91-2.3-7.69-2.3-9.12,0-16.54,8.96-16.54,19.97,0,7.88,3.8,14.72,9.31,17.95h0s15.25,0,15.25,0c-.12-.09-.22-.19-.33-.29-4.66-3.92-7.69-10.36-7.69-17.66Z"/>
        <path class="cls-1" d="M88.13,170.32c-2.78,0-5.4.82-7.69,2.3,4.66,3.92,7.69,10.38,7.69,17.68s-3.03,13.74-7.69,17.66c-.11.1-.21.2-.33.29h15.25c5.51-3.24,9.31-10.07,9.31-17.95,0-11.01-7.42-19.97-16.54-19.97Z"/>
        <path class="cls-1" d="M0,0v247.84h139.66V0H0ZM61.59,155.54h1.83v1.74h4.65v-4.47h-1.89v-1.81h7.28v1.81h-1.74v4.47h4.5v-1.74h1.83v7.2h-1.83v-1.85h-4.5v4.58h1.74v1.81h-7.28v-1.81h1.89v-4.58h-4.65v1.85h-1.83v-7.2ZM100.69,208.55v8.98h-61.72v-8.98c-4.58-4.29-7.5-10.89-7.5-18.26,0-12.94,9-23.45,20.06-23.45,3.96,0,7.64,1.35,10.75,3.67,2.3-1.24,4.86-1.93,7.55-1.93s5.25.68,7.55,1.93c3.11-2.32,6.8-3.67,10.75-3.67,11.06,0,20.06,10.51,20.06,23.45,0,7.37-2.92,13.96-7.5,18.26Z"/>
      </g>
      <g>
        <path d="M181.75,195.72v17.81h-4.98v-42.83h11.75c5.25,0,9.14,1.01,11.65,3.02,2.51,2.01,3.76,5.04,3.76,9.08,0,5.66-2.87,9.49-8.61,11.48l11.63,19.25h-5.89l-10.37-17.81h-8.94ZM181.75,191.44h6.83c3.52,0,6.09-.7,7.73-2.09,1.64-1.4,2.46-3.49,2.46-6.28s-.83-4.87-2.5-6.12c-1.67-1.25-4.35-1.88-8.04-1.88h-6.47v16.38Z"/>
        <path d="M212.72,172.72c0-1.11.27-1.93.82-2.45.55-.52,1.23-.78,2.05-.78s1.46.26,2.02.79.85,1.34.85,2.43-.28,1.91-.85,2.45c-.57.54-1.24.81-2.02.81-.82,0-1.5-.27-2.05-.81-.55-.54-.82-1.35-.82-2.45ZM217.99,213.53h-4.86v-32.11h4.86v32.11Z"/>
        <path d="M224.41,227.95c-1.86,0-3.36-.24-4.51-.73v-3.96c1.35.39,2.68.59,3.98.59,1.52,0,2.64-.42,3.35-1.25.71-.83,1.07-2.09,1.07-3.79v-37.38h4.86v37.03c0,6.33-2.92,9.49-8.76,9.49ZM227.89,172.72c0-1.11.27-1.93.82-2.45.55-.52,1.23-.78,2.05-.78s1.46.26,2.02.79.85,1.34.85,2.43-.28,1.91-.85,2.45c-.57.54-1.24.81-2.02.81-.82,0-1.5-.27-2.05-.81-.55-.54-.82-1.35-.82-2.45Z"/>
        <path d="M248.28,197.1c.84-1.19,2.12-2.75,3.84-4.69l10.37-10.99h5.77l-13.01,13.68,13.92,18.43h-5.89l-11.34-15.18-3.66,3.16v12.01h-4.8v-45.59h4.8v24.17c0,1.07-.08,2.73-.23,4.98h.23Z"/>
        <path d="M296.83,209.23h-.26c-2.25,3.26-5.61,4.89-10.08,4.89-4.2,0-7.47-1.44-9.8-4.31s-3.5-6.95-3.5-12.25,1.17-9.4,3.52-12.33,5.61-4.39,9.79-4.39,7.7,1.58,10.02,4.75h.38l-.21-2.31-.12-2.26v-13.07h4.86v45.59h-3.96l-.64-4.31ZM287.1,210.05c3.32,0,5.73-.9,7.22-2.71,1.49-1.81,2.24-4.72,2.24-8.75v-1.03c0-4.55-.76-7.8-2.27-9.74-1.51-1.94-3.93-2.92-7.25-2.92-2.85,0-5.03,1.11-6.55,3.33-1.51,2.22-2.27,5.35-2.27,9.39s.75,7.2,2.26,9.29c1.5,2.09,3.71,3.13,6.62,3.13Z"/>
        <path d="M316.6,213.53h-4.86v-45.59h4.86v45.59Z"/>
        <path d="M340.48,214.12c-4.75,0-8.49-1.45-11.24-4.34-2.74-2.89-4.12-6.9-4.12-12.04s1.27-9.29,3.82-12.33,5.97-4.57,10.27-4.57c4.02,0,7.21,1.32,9.55,3.97,2.34,2.65,3.52,6.14,3.52,10.47v3.08h-22.12c.1,3.77,1.05,6.63,2.86,8.58,1.81,1.95,4.35,2.93,7.63,2.93,3.46,0,6.88-.72,10.25-2.17v4.34c-1.72.74-3.34,1.27-4.88,1.6s-3.38.48-5.55.48ZM339.16,184.91c-2.58,0-4.63.84-6.17,2.52-1.53,1.68-2.44,4-2.71,6.97h16.79c0-3.07-.68-5.42-2.05-7.05-1.37-1.63-3.32-2.45-5.86-2.45Z"/>
      </g>
    </g>
  </g>
</svg>
